<?xml version="1.0" encoding="utf-8"?>
<!-- Generator: Adobe Illustrator 27.5.0, SVG Export Plug-In . SVG Version: 6.00 Build 0)  -->
<svg version="1.1" xmlns="http://www.w3.org/2000/svg" xmlns:xlink="http://www.w3.org/1999/xlink" x="0px" y="0px"
	 viewBox="0 0 500 500" style="enable-background:new 0 0 500 500;" xml:space="preserve">
<g id="BACKGROUND">
	<rect style="fill:none;" width="500" height="500"/>
</g>
<g id="OBJECTS">
	<path style="fill:#BBD2FF;" d="M204.433,77.591c34.649-0.139,69.054-6.63,100.98-20.075c19.033-8.015,64.082-12.704,93.126-6.989
		c25.213,4.961,85.204,27.157,59.334,100.573c-25.87,73.416-58.327,80.819-34.791,129.051c17.286,35.422,47.151,70.685,20.564,98.7
		c-41.347,43.568-210.431,107.311-297.659,53.656C58.758,378.85,40.319,359.641,67.199,276.837
		c26.88-82.804-41.258-93.39-5.205-154.669C83.618,85.415,152.644,77.799,204.433,77.591z"/>
	<g>
		<g>
			<path style="fill:#FAFCFF;" d="M351.63,345.936H140.426V117.823c0-4.311,3.495-7.805,7.805-7.805h195.593
				c4.311,0,7.805,3.495,7.805,7.805V345.936z"/>
			<path style="fill:#7794F2;" d="M351.63,128.448H140.426v-10.625c0-4.311,3.495-7.805,7.805-7.805h195.593
				c4.311,0,7.805,3.495,7.805,7.805V128.448z"/>
			<g>
				<path style="fill:#FD3359;" d="M170.907,119.232c0-1.608-1.268-2.912-2.832-2.912c-0.533,0-1.026,0.16-1.451,0.424
					c0.28,1.623,1.028,3.845,3.007,4.92C170.399,121.143,170.907,120.25,170.907,119.232z"/>
				<path style="fill:#FF486F;" d="M166.624,116.744c-0.824,0.509-1.381,1.428-1.381,2.489c0,1.609,1.268,2.912,2.832,2.912
					c0.575,0,1.108-0.179,1.555-0.481C167.652,120.588,166.904,118.366,166.624,116.744z"/>
			</g>
			<g>
				<path style="fill:#FF9A32;" d="M162.805,119.232c0-1.608-1.268-2.912-2.832-2.912c-0.533,0-1.026,0.16-1.451,0.424
					c0.28,1.623,1.028,3.845,3.007,4.92C162.296,121.143,162.805,120.25,162.805,119.232z"/>
				<path style="fill:#FFA452;" d="M158.521,116.744c-0.824,0.509-1.381,1.428-1.381,2.489c0,1.609,1.268,2.912,2.832,2.912
					c0.575,0,1.108-0.179,1.555-0.481C159.549,120.588,158.801,118.366,158.521,116.744z"/>
			</g>
			<g>
				<path style="fill:#99B999;" d="M154.702,119.232c0-1.608-1.268-2.912-2.832-2.912c-0.533,0-1.026,0.16-1.451,0.424
					c0.28,1.623,1.028,3.845,3.007,4.92C154.193,121.143,154.702,120.25,154.702,119.232z"/>
				<path style="fill:#B7D7B7;" d="M150.419,116.744c-0.824,0.509-1.381,1.428-1.381,2.489c0,1.609,1.268,2.912,2.832,2.912
					c0.575,0,1.108-0.179,1.555-0.481C151.446,120.588,150.699,118.366,150.419,116.744z"/>
			</g>
		</g>
		<g>
			<rect x="152.395" y="198.434" style="fill:#ECF3FF;" width="185.147" height="45.631"/>
			<rect x="152.395" y="254.202" style="fill:#ECF3FF;" width="185.147" height="12.137"/>
			<rect x="152.395" y="278.941" style="fill:#ECF3FF;" width="185.147" height="12.137"/>
			<rect x="152.395" y="303.68" style="fill:#ECF3FF;" width="185.147" height="12.137"/>
		</g>
	</g>
	<g>
		<g>
			<path style="fill:#FFCDC5;" d="M412.963,316.198l-2.761-1.151c-0.91-0.379-1.473-1.301-1.394-2.284l0.194-2.433l-5.798-1.967
				l-0.366,1.648c-0.429,1.243-0.124,2.907-1.01,3.877l-0.955,1.045L412.963,316.198z"/>
		</g>
		<polygon style="fill:#FCD9D2;" points="387.044,432.778 386.936,441.066 381.606,442.017 377.351,431.248 		"/>
		<polygon style="fill:#FCD9D2;" points="442.772,424.846 438.892,429.902 429.699,426.549 433.785,417.905 		"/>
		<g>
			<path style="fill:#FF9A32;" d="M437.016,437.112c-0.862-0.507,1.972-6.646,2.348-7.304l2.229-5.35
				c0.376-0.658,1.543-0.195,2.405,0.313l2.335,1.513l-6.896,12.195L437.016,437.112z"/>
			<g>
				<path style="fill:#001C44;" d="M440.811,438l5.961-10.264c0.288-0.495,0.119-1.13-0.376-1.417l-0.78-0.452l-7.002,12.056
					l0.781,0.453C439.89,438.663,440.524,438.495,440.811,438z"/>
				
					<line style="opacity:0.44;fill:none;stroke:#FFFFFF;stroke-linecap:round;stroke-miterlimit:10;" x1="438.526" y1="431.57" x2="440.439" y2="431.975"/>
				
					<line style="opacity:0.44;fill:none;stroke:#FFFFFF;stroke-linecap:round;stroke-miterlimit:10;" x1="438.125" y1="432.894" x2="439.603" y2="433.207"/>
				
					<line style="opacity:0.44;fill:none;stroke:#FFFFFF;stroke-linecap:round;stroke-miterlimit:10;" x1="437.483" y1="434.166" x2="438.767" y2="434.438"/>
			</g>
		</g>
		<path style="fill:none;stroke:#FCD9D2;stroke-width:2;stroke-linecap:round;stroke-miterlimit:10;" d="M351.14,317.471"/>
		<path style="fill:#FCD9D2;" d="M439.483,430.199c1.222,0.311,2.607-1.175,3.007-2.75c0.4-1.575-0.266-3.104-1.488-3.414
			c-1.222-0.311-4.197,0.738-4.597,2.313C436.004,427.922,438.26,429.889,439.483,430.199z"/>
		<g>
			<g>
				<path style="fill:#FF9A32;" d="M374.225,444.537c-0.11-1.011,6.616-2.428,7.38-2.52l5.331-0.951
					c0.765-0.092,1.48,0.659,1.59,1.67l0.184,2.822l-14.485,1.782V444.537z"/>
				<g>
					<path style="fill:#001C44;" d="M375.303,448.172l12.567-1.386c0.535-0.059,0.92-0.542,0.858-1.076l-0.114-0.989l-14.389,1.612
						v0.874C374.225,447.785,374.728,448.235,375.303,448.172z"/>
					
						<line style="opacity:0.44;fill:none;stroke:#FFFFFF;stroke-linecap:round;stroke-miterlimit:10;" x1="379.66" y1="442.403" x2="380.491" y2="444.209"/>
					
						<line style="opacity:0.44;fill:none;stroke:#FFFFFF;stroke-linecap:round;stroke-miterlimit:10;" x1="378.337" y1="442.88" x2="378.98" y2="444.275"/>
					
						<line style="opacity:0.44;fill:none;stroke:#FFFFFF;stroke-linecap:round;stroke-miterlimit:10;" x1="376.91" y1="443.13" x2="377.468" y2="444.341"/>
				</g>
			</g>
			<path style="fill:#FCD9D2;" d="M381.776,442.128c0.489,1.185,2.123,1.635,3.65,1.005c1.527-0.63,1.88-3.286,1.391-4.471
				c-0.489-1.185-2.661-1.788-4.188-1.159C381.103,438.133,381.288,440.943,381.776,442.128z"/>
		</g>
		<path style="fill:#7794F2;" d="M408.784,411.306c-4.703-1.66-5.365-2.182-6.502-8.992c-1.137-6.81,4.288-11.482,3.117-16.877
			c-1.172-5.395,4.215-8.439,6.927-11.413c0.676-0.742,1.346-1.288,1.969-1.689l-5.321,30.356c-0.187,1.067,0.332,2.133,1.288,2.643
			l23.523,12.572c2.099,1.122-2.868,1.74-5.181,2.301c-0.009,0.002-0.017,0.004-0.024,0.007
			C426.17,421.031,413.487,412.966,408.784,411.306z"/>
		<path style="fill:#7794F2;" d="M380.688,416.045c-0.61-6.377-1.604-3.399-4.739-8.102c-3.136-4.703,3.564-12.941,8.023-19.459
			c9.653-14.11,17.623-12.02,16.569-8.165l-10.375,14.578c-5.319,7.473-7.318,16.81-5.527,25.806l1.618,8.122
			c-0.791-0.477-1.525-1.004-2.14-1.599C379.926,423.177,381.297,422.422,380.688,416.045z"/>
		<path style="fill:#7794F2;" d="M380.543,369.045l4.088-12.405l18.572,9.397l-0.802,11.667l-1.762,1.671
			c-2.527-1.589-10.976,0.803-15.468,9.016c-3.79,6.929-12.358,14.848-9.223,19.552c3.136,4.703,4.13,1.725,4.739,8.102
			c0.61,6.377-0.761,7.132,3.429,11.181c0.615,0.595,1.349,1.121,2.14,1.599l1.816,9.119c0.116,0.582-0.375,1.105-0.963,1.027
			l-7.477-0.997l-7.256-21.389c-2.142-6.314-2.26-13.136-0.337-19.521C375.228,386.484,379.932,370.898,380.543,369.045z"/>
		<path style="fill:#A8BEF4;" d="M395.024,377.458l-0.004-12.564l19.956,6.288c-2.897,6.338-10.66,8.166-9.201,14.884
			c1.296,5.968-10.079,19.866,4.713,25.087c4.703,1.66,16.667,7.636,19.211,7.636c2.712,0,4.413-1.144,4.085-0.885l6.266,4.722
			l-4.87,5.975C392.69,413.546,393.554,419.317,395.024,377.458z"/>
		<path style="fill:#FCD9D2;" d="M347.694,315.529l1.78,0.644l-0.746-0.921c-0.268-0.332,3.559,1.938,3.559,1.938l20.154,7.284
			l19.079-7.458l3.303,9.537l-20.314,6.352l-2.086,0.652l-1.266-0.646l-25.388-12.946c0,0-1.453-1.182-0.737-3.26
			C345.466,315.45,347.694,315.529,347.694,315.529z"/>
		<polygon style="fill:#FFCDC5;" points="412.963,316.198 399.887,314.41 396.369,323.615 417.427,321.475 		"/>
		<path style="fill:#002664;" d="M397.48,314.924l-12.481,3.025c-1.561,0.378-2.321,2.149-1.52,3.541l4.715,8.196L397.48,314.924z"
			/>
		<path style="fill:#FCD9D2;" d="M400.761,287.804c0.052-0.772,0.272-1.498,0.597-2.172c4.483-0.911,10.12-0.889,9.23,5.36
			c-1.017,7.14-1.755,15.306-1.431,19.417l-3.261-0.105c-3.649-0.118-8.411-4.068-8.182-7.479L400.761,287.804z"/>
		<path style="fill:#FCD9D2;" d="M430.877,370.36l1.305-3.549l0,0l-0.565-22.513l-12.884-14.868l7.612-6.984l12.58,17.168
			l0.452,0.616c0.539,0.735,0.768,1.652,0.639,2.554l0,0l-5.342,24.491l0,0c0,0,0.303,1.016,0.059,2.729
			c-0.13,0.912-0.653,2.136-1.8,2.551C432.134,372.845,430.315,372.318,430.877,370.36z"/>
		<path style="fill:#002664;" d="M422.573,318.803l9.202,6.83c1.317,0.978,1.547,2.859,0.504,4.125l-5.95,7.223
			c-1.267,1.537-3.68,1.332-4.668-0.398l-3.343-5.85L422.573,318.803z"/>
		<g style="opacity:0.44;">
			<path style="fill:#5170F2;" d="M413.877,374.582l0.1-0.443c-3.307-0.456-3.925-4.399-3.936-4.561l-0.664-0.216
				C409.379,369.406,409.681,374.023,413.877,374.582z"/>
		</g>
		<path style="opacity:0.44;fill:none;stroke:#5170F2;stroke-width:0.5;stroke-miterlimit:10;" d="M388.817,362.772
			c0,0-1.38,6.12-7.293,3.296"/>
		<path style="fill:#002664;" d="M412.963,316.198c0.038,0.216,0.237,0.462,0.112,0.647c-2.153,3.18-4.094,6.859-9.93,5.461
			c-5.532-1.325-4.763-5.151-3.257-7.895l-2.407,0.514l-11.099,2.69l-5.05,39.901c-0.363,1.473,0.473,2.977,1.916,3.446
			l33.636,10.934c2.162,0.703,2.854-0.589,2.911-2.862l0.118-4.694l2.677-45.535L412.963,316.198z"/>
		<path style="fill:#002664;" d="M416.534,305.303c-3.389,2.674-6.51,10.145-9.223,2.379c-1.56-4.467,3.126-13.384,1.286-16.78
			c-1.84-3.396-9.536-0.999-10.882-2.797c-0.708-0.946-0.716-2.612-0.565-3.978c0.116-1.043,1.415-0.467,2.176-1.19
			c11.356-10.807,22.944,5.309,21.619,12.79C419.451,304.156,416.534,305.303,416.534,305.303z"/>
		<g>
			<path style="fill:#002664;" d="M353.311,325.841l0.792,1.653c0.836,1.744,0.093,3.855-1.651,4.691l-0.793,0.38
				c-1.744,0.836-3.855,0.093-4.691-1.651l-0.793-1.653L353.311,325.841z"/>
			<polygon style="fill:#001C44;" points="346.282,310.712 346.468,310.803 353.503,325.363 345.753,329.108 338.718,314.547 
				338.762,314.344 			"/>
			<polygon style="fill:#001C44;" points="340.21,307.743 341.393,308.322 339.938,308.982 			"/>
			<polygon style="fill:#ECF3FF;" points="341.393,308.322 346.282,310.712 338.762,314.344 339.938,308.982 			"/>
			<path style="fill:#5170F2;" d="M345.948,329.928l8.169-3.653c0.387-0.173,0.562-0.631,0.389-1.018l-0.031-0.069
				c-0.173-0.388-0.632-0.563-1.019-0.39l-8.17,3.653c-0.387,0.173-0.562,0.632-0.389,1.019l0.031,0.069
				C345.102,329.926,345.561,330.101,345.948,329.928z"/>
			
				<line style="opacity:0.44;fill:none;stroke:#5170F2;stroke-linecap:round;stroke-miterlimit:10;" x1="345.858" y1="312.555" x2="351.61" y2="324.582"/>
			
				<line style="opacity:0.44;fill:none;stroke:#5170F2;stroke-linecap:round;stroke-miterlimit:10;" x1="344.057" y1="313.359" x2="349.809" y2="325.386"/>
			
				<line style="opacity:0.44;fill:none;stroke:#5170F2;stroke-linecap:round;stroke-miterlimit:10;" x1="342.256" y1="314.163" x2="348.008" y2="326.19"/>
			
				<line style="opacity:0.44;fill:none;stroke:#5170F2;stroke-linecap:round;stroke-miterlimit:10;" x1="340.455" y1="314.967" x2="346.207" y2="326.995"/>
		</g>
		
			<line style="fill:none;stroke:#FCD9D2;stroke-linecap:round;stroke-miterlimit:10;" x1="351.179" y1="317.246" x2="346.893" y2="316.725"/>
	</g>
	<g>
		<g>
			
				<ellipse transform="matrix(0.9252 -0.3794 0.3794 0.9252 -6.6252 102.5884)" style="fill:none;stroke:#7794F2;stroke-width:1.4173;stroke-miterlimit:10;" cx="257.005" cy="68.106" rx="14.336" ry="14.336"/>
			<circle style="fill:none;stroke:#7794F2;stroke-width:1.4173;stroke-miterlimit:10;" cx="257.005" cy="68.106" r="17.772"/>
			<path style="fill:#7794F2;" d="M254.588,68.852c0-1.335,1.082-2.417,2.417-2.417c1.335,0,2.417,1.082,2.417,2.417
				c0,1.335-1.082,2.417-2.417,2.417C255.67,71.27,254.588,70.187,254.588,68.852z"/>
		</g>
		
			<line style="fill:none;stroke:#7794F2;stroke-width:1.4173;stroke-linecap:round;stroke-miterlimit:10;" x1="256.817" y1="61.482" x2="256.817" y2="67.747"/>
		
			<line style="fill:none;stroke:#7794F2;stroke-width:1.4173;stroke-linecap:round;stroke-miterlimit:10;" x1="257.688" y1="69.077" x2="260.779" y2="71.835"/>
		
			<line style="fill:none;stroke:#7794F2;stroke-width:1.4173;stroke-linecap:round;stroke-miterlimit:10;" x1="265.055" y1="75.447" x2="267.326" y2="77.715"/>
		
			<line style="fill:none;stroke:#7794F2;stroke-width:1.4173;stroke-linecap:round;stroke-miterlimit:10;" x1="256.72" y1="53.797" x2="256.774" y2="56.227"/>
	</g>
	<g>
		<path style="fill:none;stroke:#7794F2;stroke-width:1.4173;stroke-miterlimit:10;" d="M400.82,129.737h-5.537
			c-3.964,0-7.177-3.213-7.177-7.177v-14.893c0-3.964,3.213-7.177,7.177-7.177h5.537c3.964,0,7.177,3.213,7.177,7.177v14.893
			C407.996,126.524,404.783,129.737,400.82,129.737z"/>
		
			<line style="fill:none;stroke:#7794F2;stroke-width:1.4173;stroke-miterlimit:10;" x1="391.009" y1="108.636" x2="404.49" y2="108.636"/>
		
			<line style="fill:none;stroke:#7794F2;stroke-width:1.4173;stroke-miterlimit:10;" x1="391.009" y1="115.114" x2="404.49" y2="115.114"/>
		
			<line style="fill:none;stroke:#7794F2;stroke-width:1.4173;stroke-miterlimit:10;" x1="391.009" y1="121.592" x2="404.49" y2="121.592"/>
	</g>
	<g>
		<path style="fill:none;stroke:#7794F2;stroke-width:1.4173;stroke-miterlimit:10;" d="M404.063,192.201"/>
		<g>
			<path style="fill:none;stroke:#7794F2;stroke-width:1.4173;stroke-miterlimit:10;" d="M427.956,195.507h-21.692
				c-1.92,0-3.49-1.571-3.49-3.49v-1.123c0-1.92,1.571-3.491,3.49-3.491h21.692c1.92,0,3.49,1.571,3.49,3.491v1.123
				C431.446,193.937,429.875,195.507,427.956,195.507z"/>
			<path style="fill:none;stroke:#7794F2;stroke-width:1.4173;stroke-miterlimit:10;" d="M406.259,195.127
				c0,10.689,4.822,19.354,10.77,19.354c5.948,0,10.77-8.665,10.77-19.354"/>
			<path style="fill:none;stroke:#7794F2;stroke-width:1.4173;stroke-miterlimit:10;" d="M427.799,195.127"/>
			<path style="fill:none;stroke:#7794F2;stroke-width:1.4173;stroke-miterlimit:10;" d="M423.507,225.696h-12.955
				c-0.763,0-1.387-0.624-1.387-1.387v-0.446c0-0.763,0.624-1.387,1.387-1.387h12.955c0.763,0,1.387,0.624,1.387,1.387v0.446
				C424.894,225.072,424.27,225.696,423.507,225.696z"/>
			<path style="fill:none;stroke:#7794F2;stroke-width:1.4173;stroke-miterlimit:10;" d="M427.623,197.345
				c4.029,0.333,7.359-0.16,7.026,3.87c-0.333,4.029-8.232,10.722-12.261,10.389"/>
			<path style="fill:none;stroke:#7794F2;stroke-width:1.4173;stroke-miterlimit:10;" d="M406.443,197.345
				c-4.029,0.333-7.359-0.16-7.026,3.87c0.333,4.029,8.232,10.722,12.261,10.389"/>
			
				<line style="fill:none;stroke:#7794F2;stroke-width:1.4173;stroke-miterlimit:10;" x1="415.729" y1="222.478" x2="415.729" y2="214.333"/>
			
				<line style="fill:none;stroke:#7794F2;stroke-width:1.4173;stroke-miterlimit:10;" x1="418.333" y1="222.478" x2="418.333" y2="214.333"/>
			<path style="fill:none;stroke:#7794F2;stroke-width:1.4173;stroke-miterlimit:10;" d="M409.165,198.551
				c0,0,2.119,7.918,2.514,8.409"/>
		</g>
	</g>
	<g>
		<g>
			
				<ellipse transform="matrix(0.1597 -0.9872 0.9872 0.1597 -136.512 206.4234)" style="fill:none;stroke:#7794F2;stroke-width:1.4173;stroke-miterlimit:10;" cx="53" cy="183.401" rx="8.779" ry="8.778"/>
			<path style="fill:none;stroke:#7794F2;stroke-width:1.4173;stroke-miterlimit:10;" d="M57.767,183.579
				c0,2.632-2.134,4.766-4.766,4.766c-2.632,0-4.766-2.134-4.766-4.766c0-2.632,2.134-4.766,4.766-4.766
				C55.633,178.813,57.767,180.947,57.767,183.579z"/>
			<path style="fill:none;stroke:#7794F2;stroke-width:1.4173;stroke-miterlimit:10;" d="M55.389,168.358L55.389,168.358
				c1.804-2.319,5.521-0.966,5.412,1.97v0c-0.073,1.972,1.73,3.485,3.659,3.07l0,0c2.872-0.617,4.85,2.809,2.88,4.988l0,0
				c-1.323,1.463-0.915,3.782,0.83,4.704l0,0c2.597,1.374,1.91,5.27-1,5.672l0,0c-1.955,0.27-3.132,2.309-2.389,4.137l0,0
				c1.106,2.722-1.924,5.265-4.412,3.702l0,0c-1.671-1.049-3.883-0.244-4.489,1.634l0,0c-0.902,2.796-4.858,2.796-5.76,0h0
				c-0.606-1.878-2.818-2.683-4.489-1.634l0,0c-2.488,1.562-5.519-0.981-4.412-3.702l0,0c0.743-1.828-0.434-3.867-2.389-4.137l0,0
				c-2.91-0.403-3.597-4.298-1-5.672l0,0c1.744-0.923,2.153-3.241,0.829-4.704l0,0c-1.971-2.179,0.008-5.605,2.88-4.988l0,0
				c1.929,0.414,3.732-1.099,3.659-3.07v0c-0.109-2.936,3.609-4.289,5.412-1.97l0,0C51.823,169.915,54.177,169.915,55.389,168.358z"
				/>
		</g>
	</g>
	<g>
		<g>
			<circle style="fill:none;stroke:#7794F2;stroke-width:1.4173;stroke-miterlimit:10;" cx="73.888" cy="159.878" r="7.133"/>
			<path style="fill:none;stroke:#7794F2;stroke-width:1.4173;stroke-miterlimit:10;" d="M77.761,160.023
				c0,2.139-1.734,3.872-3.873,3.872c-2.139,0-3.873-1.734-3.873-3.872c0-2.139,1.734-3.873,3.873-3.873
				C76.027,156.15,77.761,157.884,77.761,160.023z"/>
			<path style="fill:none;stroke:#7794F2;stroke-width:1.4173;stroke-miterlimit:10;" d="M75.829,147.655L75.829,147.655
				c1.466-1.884,4.486-0.785,4.398,1.601v0c-0.059,1.602,1.406,2.831,2.973,2.495l0,0c2.334-0.501,3.941,2.282,2.34,4.053l0,0
				c-1.075,1.189-0.743,3.073,0.674,3.822l0,0c2.11,1.116,1.552,4.282-0.813,4.609l0,0c-1.588,0.22-2.544,1.876-1.941,3.361l0,0
				c0.899,2.211-1.563,4.277-3.585,3.008l0,0c-1.358-0.853-3.155-0.198-3.647,1.327l0,0c-0.733,2.272-3.947,2.272-4.68,0h0
				c-0.492-1.526-2.289-2.18-3.647-1.327l0,0c-2.022,1.269-4.484-0.797-3.585-3.008l0,0c0.604-1.485-0.353-3.142-1.941-3.361l0,0
				c-2.365-0.327-2.923-3.492-0.813-4.609l0,0c1.417-0.75,1.749-2.633,0.674-3.822l0,0c-1.601-1.77,0.006-4.554,2.34-4.053l0,0
				c1.568,0.337,3.033-0.893,2.973-2.495v0c-0.089-2.385,2.932-3.485,4.398-1.601l0,0C72.932,148.921,74.844,148.921,75.829,147.655
				z"/>
		</g>
	</g>
	<g>
		<g>
			<g>
				<path style="fill:#FCD9D2;" d="M122.006,297.849c5.923-1.735,14.529-30.495,3.258-42.493c-5.805-6.172-3.01,2.353-3.01,2.353
					c2.674,13.262-0.296,26.839-6.572,38.574C112.867,301.546,122.006,297.849,122.006,297.849z"/>
				<path style="fill:#FCD9D2;" d="M129.09,263.782c0,0-2.869-7.073-3.249-8.104c-2.056-5.568-6.427-9.302-7.507-7.994
					c-2.808,3.399,4.043,9.683,4.043,9.683C125.233,259.531,126.607,260.821,129.09,263.782z"/>
			</g>
			<path style="fill:#7794F2;" d="M113.741,295.016c2.077-2.265,3.276-5.173,4.69-7.902c0.499-0.962,1.076-1.957,2.022-2.484
				c1.239-0.69,2.84-0.389,4.03,0.381c1.191,0.77,2.059,1.937,2.901,3.078c0.3,0.406,0.857,1.904,0.906,2.406
				c0.04,0.413-0.103,0.82-0.251,1.208c-3.312,8.654-10.735,14.68-19.429,17.887c-1.118,0.413-2.286,0.768-3.477,0.736
				c-2.073-0.055-4.059-1.391-4.891-3.29c-0.61-1.392-0.678-3.434,0.179-4.764c0.91-1.413,2.261-1.444,3.828-1.941
				C107.726,299.228,111.227,297.757,113.741,295.016z"/>
		</g>
		<path style="fill:#FCD9D2;" d="M152.453,283.813c-0.069,1.227,0.186,4.728,1.477,6.997c0.461-1.282,0.924-3.917,0.793-5.07
			L152.453,283.813z"/>
		<g>
			<path style="fill:#FF8B22;" d="M100.675,276.16c0.375,4.492,9.939,18.718,5.752,24.215c-4.335,5.691-6.572-5.93-15.473-4.336
				c-10.736,1.923-11.794-29.71,6.909-29.008c0.775,0.029,1.348-1.755,1.77-1.128C104.726,273.47,100.282,271.453,100.675,276.16z"
				/>
			<path style="fill:#FFCDC5;" d="M98.558,353.361l12.502,1.898c13.813,9.88-4.145,83.309-3.83,89.869l-1.889-0.349
				c-2.08-8.949,0.326-18.905-0.554-26.301C99.962,377.883,89.375,368.551,98.558,353.361z"/>
			<path style="fill:#FCD9D2;" d="M90.759,358.417l11.99,2.769c12.848,11.927-13.166,79.574-13.198,87.063l-0.782,0.345
				c-1.551-10.297,3.042-31.274,2.504-39.735C88.255,361.429,81.102,375.277,90.759,358.417z"/>
			<path style="fill:#7794F2;" d="M113.165,346.176c0,0,22.49,40.397,3.947,41.143c-27.151,1.091-41.811,10.698-40.102-6.688
				c2.637-26.82,4.054-23.944,6.869-29.369c2.494-4.806,7.493-14.405,9.68-9.075C97.023,350.626,113.165,346.176,113.165,346.176z"
				/>
			<path style="fill:#002664;" d="M104.019,300.571c0,0,9.152,2.459,9.729,12.462c0.577,10.003-6.807,10.445-1.697,26.287
				c1.728,5.357,3.821,7.641,2.712,10.959c-1.721,5.149-26.303,11.383-30.652,4.261c-3.17-5.19,2.712-3.497,4.762-16.371
				c2.049-12.875-13.44-28.534-3.058-33.598C93.795,300.678,102.007,308.082,104.019,300.571z"/>
			<path style="fill:#FFCDC5;" d="M98.481,291.115c0,0,4.1,9.553,5.906,10.454c0.952,0.475,10.092,9.139,1.187,10.399
				c-12.731,1.801-12.561-6.27-14.04-7.316c-3.126-2.212,0.282-4.181,1.491-12.336C93.484,289.223,98.481,291.115,98.481,291.115z"
				/>
			<path style="fill:#FCD9D2;" d="M91.924,292.548c2.162-0.351,6.246,0.757,8.436,0.844c0.708,0.028,1.48,0.084,2.053-0.346
				c0.77-0.579,0.818-1.742,0.775-2.737c-0.285-6.548-2.904-19.267-4.414-18.207c-2.167-0.274-3.156-0.048-5.249,0.568
				c-1.127,0.332-2.231,0.796-3.179,1.51c-1.021,0.769-1.83,1.802-2.595,2.848c-1.739,2.377-3.389,5.173-3.047,8.162
				c0.125,1.093,0.513,2.135,0.914,3.156c0.554,1.413,1.147,2.829,2.032,4.047c0.885,1.217,0.14-0.493,1.561-0.151
				c0.503,0.121,1.023,0.157,1.518,0.309C91.173,292.688,91.592,292.885,91.924,292.548z"/>
			<path style="fill:#FF9A32;" d="M92.504,280.815c-0.454-0.85-0.894-1.679-0.707-2.684c0.949-5.117,13.765-3.282,9.532-10.305
				c-5.613-9.312-29.511-1.575-25.198,19.161c2.934,14.103,4.69,15.689,19.323,19.096c0.912,0.212,1.926-0.157,2.642-0.775
				c0.794-0.684,1.041-1.849,1.056-2.93C99.184,300.138,92.834,281.433,92.504,280.815z"/>
			<path style="fill:#7794F2;" d="M106.055,444.611c0.261,0.24,0.553,0.445,0.792,0.707c0.286,0.313,0.486,0.696,0.754,1.024
				c0.977,1.193,2.665,1.476,4.202,1.598c0.493,0.039,1.008,0.077,1.43,0.336c0.421,0.258,0.705,0.816,0.487,1.26
				c-0.184,0.375-0.633,0.526-1.041,0.614c-0.827,0.179-1.677,0.25-2.522,0.211c-0.791-0.036-1.931-0.068-2.446-0.669
				c-0.367-0.428-0.76-1.301-1.189-1.666c-0.6,0.028-0.026,1.083-0.11,1.636c-0.09,0.594-0.005,0.733-0.86,0.757
				c-0.601,0.017-0.694-1.113-0.79-1.707c-0.435-2.716-1.278-3.344-0.553-4.522C104.911,443.052,105.462,444.066,106.055,444.611z"
				/>
			<path style="fill:#FFCDC5;" d="M108.68,445.676c9.3,4.893-2.127,4.254-3.338-0.897c-0.42-1.785-0.296-2.345,0.697-2.076
				C107.451,443.086,106.137,444.338,108.68,445.676z"/>
			<path style="fill:#7794F2;" d="M88.99,443.333c-0.117,0.353,0.287,0.689,0.376,1.05c0.107,0.433,0.099,0.886,0.182,1.323
				c0.303,1.591,1.718,2.699,3.075,3.583c0.435,0.283,0.891,0.577,1.15,1.027c0.259,0.45,0.241,1.107-0.183,1.407
				c-0.358,0.253-0.848,0.167-1.269,0.044c-0.853-0.25-1.673-0.611-2.433-1.071c-0.712-0.431-1.747-1.032-1.921-1.845
				c-0.124-0.578-0.048-1.582-0.261-2.134c-0.568-0.275-0.778,0.996-1.133,1.464c-0.381,0.503-0.162,0.663-0.963,0.256
				c-0.563-0.286-0.082-1.376,0.128-1.971c0.961-2.724,0.59-1.456,0.961-2.724c0.258-0.882,1.065-1.326,1.661-1.32
				C88.847,442.428,89.191,442.729,88.99,443.333z"/>
			<path style="fill:#FCD9D2;" d="M91.082,445.706c2.971,8.883-4.335-0.598-2.735-2.712c0.738-0.975,0.94-0.793,1.857-0.946
				C91.721,441.795,90.395,443.65,91.082,445.706z"/>
		</g>
		<g>
			<g>
				<path style="fill:#FFFFFF;" d="M102.191,258.753l70.076,62.831c3.254,2.918,8.252,2.7,11.106-0.483l20.614-22.991
					c2.854-3.184,2.527-8.175-0.727-11.093l-70.077-62.831c-3.254-2.918-8.252-2.7-11.106,0.483l-20.614,22.991
					C98.61,250.843,98.937,255.835,102.191,258.753z"/>
				<path style="fill:#FF9A32;" d="M157.232,283.714l2.041-0.668c0.33,2.341,1.598,4.54,3.706,5.976
					c3.968,2.702,9.375,1.675,12.076-2.293c1.6-2.349,1.883-5.2,1.032-7.698c2.349,1.012,3.939,3.564,3.342,6.403l-3.218,15.297
					c-0.902,4.288-6.107,5.991-9.37,3.066l-11.638-10.435C151.941,290.436,153.068,285.077,157.232,283.714z"/>
				<path style="fill:#7794F2;" d="M172.089,278.852l-12.816,4.194c-0.291-2.066,0.146-4.241,1.413-6.101
					c2.702-3.968,8.109-4.994,12.076-2.293c1.618,1.102,2.738,2.657,3.324,4.378C174.888,278.514,173.496,278.392,172.089,278.852z"
					/>
				<path style="fill:#FF9A32;" d="M175.055,286.729c-2.702,3.968-8.109,4.994-12.076,2.293c-2.108-1.435-3.376-3.635-3.706-5.976
					l12.816-4.194c1.407-0.461,2.799-0.338,3.998,0.178C176.938,281.529,176.655,284.38,175.055,286.729z"/>
				<path style="fill:#7794F2;" d="M130.731,248.539l25.278,22.664c1.103,0.989,2.814,0.896,3.803-0.207l0.015-0.017
					c0.989-1.103,0.895-2.815-0.207-3.803l-25.278-22.664c-1.103-0.989-2.814-0.896-3.803,0.207l-0.015,0.017
					C129.535,245.839,129.628,247.55,130.731,248.539z"/>
				<path style="fill:#7794F2;" d="M124.958,254.433l13.781,12.356c1.108,0.993,2.826,0.899,3.819-0.208l0,0
					c0.993-1.108,0.9-2.827-0.208-3.82l-13.783-12.358c-1.108-0.993-2.826-0.899-3.819,0.209l0,0
					C123.756,251.721,123.85,253.44,124.958,254.433z"/>
			</g>
			<g>
				<g>
					<path style="fill:#FCD9D2;" d="M102.525,319.042c4.864,3.799,33.245-5.984,36.417-22.137c1.628-8.315-3.667-1.073-3.667-1.073
						c-9.214,9.907-21.974,15.413-35.166,17.159C94.192,313.774,102.525,319.042,102.525,319.042z"/>
					<path style="fill:#FCD9D2;" d="M134.33,304.927c0,0,4.072-6.455,4.688-7.366c3.324-4.917,3.808-10.646,2.115-10.761
						c-4.399-0.299-5.507,8.932-5.507,8.932C135.533,299.315,135.286,301.183,134.33,304.927z"/>
				</g>
				<path style="fill:#7794F2;" d="M100.006,310.676c3.052,0.366,6.113-0.357,9.154-0.799c1.073-0.156,2.217-0.267,3.198,0.194
					c1.283,0.604,1.972,2.079,2.041,3.496c0.069,1.416-0.372,2.802-0.808,4.152c-0.155,0.48-1.046,1.807-1.426,2.139
					c-0.312,0.274-0.727,0.395-1.128,0.5c-8.961,2.357-18.186-0.158-25.861-5.349c-0.988-0.668-1.957-1.409-2.626-2.395
					c-1.164-1.716-1.238-4.108-0.18-5.892c0.775-1.307,2.394-2.553,3.975-2.633c1.679-0.085,2.491,0.994,3.809,1.977
					C93.076,308.247,96.313,310.233,100.006,310.676z"/>
			</g>
			<path style="fill:#FCD9D2;" d="M135.163,288.155c-0.069,1.227,0.186,4.728,1.477,6.997c0.461-1.282,0.924-3.917,0.793-5.07
				L135.163,288.155z"/>
		</g>
	</g>
	<g>
		<g>
			<g>
				<g>
					<path style="fill:#FCD9D2;" d="M284.374,329.146c0,0,0.934,1.788,2.174,3.301c3.121,3.808,3.176-1.504,0.192-5.203
						L284.374,329.146z"/>
					<path style="fill:#7794F2;" d="M220.738,182.923l-87.656,6.619c-4.071,0.307-7.652-2.771-7.96-6.842l-2.22-29.396
						c-0.307-4.07,2.771-7.652,6.842-7.96l87.656-6.619c4.07-0.307,7.652,2.771,7.96,6.842l2.22,29.396
						C227.888,179.034,224.809,182.615,220.738,182.923z"/>
					
						<ellipse transform="matrix(0.6378 -0.7702 0.7702 0.6378 -74.8992 173.6249)" style="fill:#FF9A32;" cx="147.158" cy="166.449" rx="11.399" ry="11.399"/>
					<g>
						<g>
							<g>
								<line style="fill:#ECF3FF;" x1="166.636" y1="152.061" x2="197.279" y2="150.26"/>
							</g>
							<g>
								<path style="fill:#ECF3FF;" d="M165.727,154.485c-0.93-0.349-1.614-1.218-1.677-2.273c-0.084-1.428,1.006-2.653,2.433-2.736
									l30.643-1.801c1.43-0.08,2.653,1.006,2.737,2.433c0.084,1.428-1.006,2.652-2.433,2.736l-30.643,1.801
									C166.414,154.666,166.055,154.608,165.727,154.485z"/>
							</g>
						</g>
					</g>
					<g>
						<line style="fill:#7794F2;" x1="168.253" y1="163.058" x2="217.797" y2="160.146"/>
						
							<line style="fill:none;stroke:#002664;stroke-width:4;stroke-linecap:round;stroke-miterlimit:10;" x1="168.253" y1="163.058" x2="217.797" y2="160.146"/>
					</g>
					<g>
						<line style="fill:#7794F2;" x1="169.636" y1="173.689" x2="219.18" y2="170.777"/>
						
							<line style="fill:none;stroke:#002664;stroke-width:4;stroke-linecap:round;stroke-miterlimit:10;" x1="169.636" y1="173.689" x2="219.18" y2="170.777"/>
					</g>
					<g>
						<path style="fill:#002664;" d="M285.823,321.668l-0.872-3.001l-0.784-3.034l-1.542-6.056
							c-0.899-4.081-1.873-8.113-2.623-12.212c-1.607-8.156-2.903-16.359-3.851-24.574c-0.475-4.106-0.877-8.211-1.196-12.302
							c-0.14-2.045-0.296-4.088-0.39-6.114c-0.06-1.018-0.1-2.023-0.135-3.023l-0.046-1.484c-0.01-0.484-0.026-0.998-0.017-1.375
							l-14.967,1.75l-3.503,0.41c0.12,0.671,0.236,1.203,0.353,1.765l0.361,1.65c0.242,1.088,0.489,2.171,0.752,3.234
							c0.503,2.145,1.063,4.252,1.608,6.362c1.126,4.205,2.329,8.363,3.602,12.485c1.238,4.014,2.558,7.989,3.948,11.927
							c1.465,4.151,3.009,8.261,4.632,12.327c1.527,3.98,3.274,7.867,4.934,11.764l2.68,5.76l1.347,2.866l1.432,2.822
							c0.91,1.865,1.856,3.708,2.829,5.532l3.54-0.479C287.176,326.348,286.467,324.019,285.823,321.668z"/>
						<path style="fill:none;" d="M280.904,322.896l-1.432-2.822l-1.347-2.866l-2.68-5.76c-1.66-3.897-3.407-7.784-4.934-11.764
							c-1.623-4.066-3.167-8.176-4.632-12.327c0.312,3.732,0.681,7.464,1.123,11.192c0.436,4.151,1.1,8.255,1.685,12.402
							l1.077,6.171l0.551,3.093l0.641,3.068c0.432,2.238,0.918,4.463,1.434,6.681l11.343-1.535
							C282.761,326.604,281.814,324.761,280.904,322.896z"/>
						<path style="fill:#001C44;" d="M270.956,320.932l-0.551-3.093l-1.077-6.171c-0.585-4.146-1.25-8.25-1.685-12.402
							c-0.442-3.728-0.811-7.46-1.123-11.192c-1.39-3.939-2.71-7.914-3.948-11.927c-1.273-4.122-2.476-8.28-3.602-12.485
							c-0.545-2.11-1.104-4.217-1.608-6.362c-0.263-1.063-0.51-2.146-0.752-3.234l-0.361-1.65c-0.117-0.562-0.234-1.094-0.353-1.765
							l3.503-0.41l-12.231,0.332c0.068,0.679,0.144,1.219,0.218,1.79l0.234,1.676c0.159,1.106,0.322,2.206,0.504,3.289
							c0.339,2.182,0.735,4.331,1.118,6.482c0.802,4.29,1.686,8.54,2.641,12.761c1.907,8.44,4.158,16.754,6.707,24.931
							c1.219,4.101,2.665,8.131,4.023,12.161l2.233,5.978l1.125,2.975l1.212,2.94c0.743,1.884,1.525,3.749,2.331,5.6l3.516-0.476
							c-0.516-2.218-1.002-4.443-1.434-6.681L270.956,320.932z"/>
						<path style="fill:#FFCDC5;" d="M270.275,192.917c0,0-2.28,3.374-3.266,9.254c-0.523,3.117,8.167,2.878,8.167,2.878
							s-13.983,6.786-19.347,1.649c-5.364-5.137-0.647-8.122-0.647-8.122s1.225,1.059,4.952-0.112
							c2.51-0.789,0.276-8.251,0.276-8.251L270.275,192.917z"/>
						<path style="fill:#FF9A32;" d="M267.009,201.768c0,0,7.993,2.331,8.598,4.253c0.604,1.922-10.025,17.016,0.694,46.309
							c0,3.628-28.549,3.058-29.884-1.94c-4.661-17.448-4.603-51.826,4.723-52.615c2.497-0.211,4.986,1.106,4.986,1.106
							s-1.058,3.707,2.417,5.629C262.018,206.431,267.009,201.768,267.009,201.768z"/>
						<path style="fill:#FCD9D2;" d="M265.143,173.851c0,0-1.999,4.009-4.251,8.521c-1.121,1.878-3.746,8.184-3.522,9.711
							c0.247,1.679,9.074,6.173,14.74,0c4.505-4.909,6.881-7.876,5.035-11.316C275.299,177.325,268.388,169.879,265.143,173.851z"/>
						<path style="fill:#54293A;" d="M284.234,175.281c-0.398-1.186-0.637-2.403-1.104-3.574c-1.431-3.59-3.547-4.221-4.994-3.676
							c2.407-6.616-21.382-7.787-15.109,4.86c1.129,2.276,2.383,1.751,6.09,3.941c5.374,2.518,3.641,1.477,3.148,4.019
							c-0.528,2.72-2.211,2.266-0.281,3.189c1.93,0.923,2.68-4.725,4.07-0.838c0.309,0.864-1.51,2.253-2.757,3.084
							c-0.697,0.464-1.218,1.144-1.458,1.946c-0.331,1.109-0.914,2.934-1.828,5.402c-1.594,4.308,8.396-1.395,12-3.049
							C290.8,186.551,284.601,176.376,284.234,175.281z"/>
					</g>
					<path style="fill:#FCD9D2;" d="M269.24,329.146c0,0,0.377,5.963,3.039,5.867c2.662-0.096,0.596-5.088,0.596-5.088
						L269.24,329.146z"/>
					
						<line style="fill:none;stroke:#002664;stroke-width:2;stroke-linecap:round;stroke-miterlimit:10;" x1="267.788" y1="330.008" x2="273.615" y2="330.008"/>
					
						<line style="fill:none;stroke:#002664;stroke-width:2;stroke-linecap:round;stroke-miterlimit:10;" x1="283.813" y1="329.743" x2="288.671" y2="328.726"/>
					<path style="fill:#002664;" d="M269.572,332.281l-4.445,1.409c-0.12,0.038-0.227,0.114-0.307,0.218l0,0
						c-0.337,0.441-0.046,1.106,0.483,1.106h4.96h3.917c0.346,0,0.626-0.303,0.626-0.676v-1.409c0-0.373-0.28-0.676-0.626-0.676
						h-4.432C269.688,332.254,269.629,332.263,269.572,332.281z"/>
					<path style="fill:#002664;" d="M285.483,331.759l-2.302,1.409c-0.12,0.038-0.227,0.114-0.307,0.218l0,0
						c-0.337,0.441-0.046,1.106,0.483,1.106h2.817h3.918c0.346,0,0.626-0.303,0.626-0.676l-0.465-1.409
						c0-0.373-0.28-0.676-0.626-0.676h-3.967C285.6,331.732,285.541,331.741,285.483,331.759z"/>
					<path style="fill:#FCD9D2;" d="M234.628,173.998c0,0-5.082,1.156-5.165,3.273c-0.052,1.325,1.566,8.504,5.589,14.244
						c3.184,4.543,12.117,9.322,12.117,9.322s2.217-3.096-7.963-19.912C235.011,173.998,234.628,173.998,234.628,173.998z"/>
					<path style="fill:#FCD9D2;" d="M230.317,179.169c0,0-5.488-6.495-4.607-24.52c1.163-3.569,1.555,0,1.555,0
						s8.674,18.13,8.343,20.845C235.277,178.208,230.317,179.169,230.317,179.169z"/>
					<path style="fill:#FCD9D2;" d="M226.263,156.913c0,0-1.266-2.264-1.185-3.673c0.157-2.748,0.064-6.119,0.064-6.119
						c3.724-0.611,2.113,6.855,2.113,6.855L226.263,156.913z"/>
					<g>
						<path style="fill:#FCD9D2;" d="M282.308,238.84c0,0,6.736-0.514,7.408-2.582c0.421-1.294,0.468-8.523-2.701-14.612
							c-2.508-4.819-12.899-12.508-12.899-12.508s-2.253,4.771,5.144,22.428C282.308,238.84,282.308,238.84,282.308,238.84z"/>
						<path style="fill:#FCD9D2;" d="M289.8,236.193c0,0-2.021,11.427-18.657,21.291c-3.912,1.122-0.999-1.78-0.999-1.78
							s10.305-17.13,12.934-18.449C285.707,235.935,289.8,236.193,289.8,236.193z"/>
						<path style="fill:#FFA350;" d="M274.01,205.169c4.934-0.067,11.911,7.391,14.548,17.049c-7.191,2.409-8.782,3.117-10.71,3.827
							c-1.665,0.613-4.661-4.507-6.064-8.926C270.128,211.902,270.161,205.221,274.01,205.169z"/>
					</g>
				</g>
				<path style="fill:#FFA350;" d="M251.722,197.751c0,0-1.309-4.304-8.042-11.296c-1.338-2.714-13.396,7.214-11.025,8.894
					c2.372,1.68,11.936,13.271,11.936,13.271l1.201-2.335c1.28-2.489,2.832-4.828,4.627-6.975L251.722,197.751z"/>
			</g>
			
				<line style="fill:#002664;stroke:#5170F2;stroke-width:1.4173;stroke-miterlimit:10;" x1="238.677" y1="258.754" x2="232.234" y2="429.713"/>
			
				<line style="fill:#002664;stroke:#5170F2;stroke-width:1.4173;stroke-miterlimit:10;" x1="291.968" y1="258.754" x2="298.41" y2="429.713"/>
			<g style="opacity:0.25;">
				<rect x="242.159" y="282.939" style="fill:#5170F2;" width="53.483" height="0.951"/>
			</g>
			<g style="opacity:0.25;">
				<rect x="243.699" y="295.914" style="fill:#5170F2;" width="53.343" height="0.95"/>
			</g>
			<g style="opacity:0.25;">
				<rect x="245.521" y="308.888" style="fill:#5170F2;" width="53.846" height="0.95"/>
			</g>
			<g style="opacity:0.25;">
				<rect x="247.656" y="321.863" style="fill:#5170F2;" width="53.291" height="0.95"/>
			</g>
			<g style="opacity:0.25;">
				<rect x="249.146" y="334.838" style="fill:#5170F2;" width="53.633" height="0.95"/>
			</g>
			<g style="opacity:0.25;">
				<rect x="251.321" y="347.813" style="fill:#5170F2;" width="53.291" height="0.95"/>
			</g>
			<g style="opacity:0.25;">
				<rect x="253.153" y="360.788" style="fill:#5170F2;" width="53.291" height="0.95"/>
			</g>
			<g style="opacity:0.25;">
				<rect x="254.986" y="373.763" style="fill:#5170F2;" width="53.291" height="0.95"/>
			</g>
			<g style="opacity:0.25;">
				<rect x="256.818" y="386.738" style="fill:#5170F2;" width="53.291" height="0.95"/>
			</g>
			<g style="opacity:0.25;">
				<rect x="258.475" y="399.712" style="fill:#5170F2;" width="53.467" height="0.95"/>
			</g>
			<g style="opacity:0.25;">
				<rect x="260.376" y="412.687" style="fill:#5170F2;" width="53.786" height="0.95"/>
			</g>
			
				<line style="opacity:0.25;fill:none;stroke:#5170F2;stroke-width:1.4173;stroke-miterlimit:10;" x1="238.677" y1="258.754" x2="261.517" y2="420.483"/>
			
				<line style="opacity:0.25;fill:none;stroke:#5170F2;stroke-width:1.4173;stroke-miterlimit:10;" x1="291.968" y1="258.754" x2="314.808" y2="420.483"/>
		</g>
		<rect x="238.677" y="261.605" style="fill:#002664;" width="53.291" height="4.752"/>
		<rect x="238.677" y="258.754" style="fill:#7794F2;" width="53.291" height="2.851"/>
	</g>
	<path style="fill:#FCD9D2;" d="M276.466,250.711c0,0-1.612,2.706-2.785,5.093c-0.717,1.458-1.283,1.865-3.279,3.19
		c-2.305,1.53-3.424,0.301-3.722-0.03c-2.319-2.589,5.61-4.757,5.61-4.757L276.466,250.711z"/>
</g>

</svg>
